<?xml version="1.0" ?><!DOCTYPE svg  PUBLIC '-//W3C//DTD SVG 1.1//EN'  'http://www.w3.org/Graphics/SVG/1.1/DTD/svg11.dtd'><svg enable-background="new 0 0 283.44 283.44" height="283.44px" version="1.1" viewBox="0 0 283.44 283.44" width="283.44px" xml:space="preserve" xmlns="http://www.w3.org/2000/svg" xmlns:xlink="http://www.w3.org/1999/xlink"><g id="facebook_xA0_Image_1_"><g><path d="M157.544,123.755c5.458-9.034,13.61-10.925,23.002-11.326c12.524-0.535,23.07,3.175,31.794,12.041    c5.852,5.948,9.43,12.998,10.155,21.477c1.546,18.084-1.012,35.944-2.748,53.847c-0.298,3.073-1.203,6.086-1.793,9.133    c-0.371,1.914-2.198,1.646-3.23,1.697c-7.877,0.389-15.787,0.254-23.643,0.855c-4.583,0.35-6.042-1.701-6.118-5.627    c-0.138-7.116,0.039-14.244-0.319-21.347c-0.489-9.709-0.863-19.472-2.262-29.069c-0.734-5.038-4.186-9.183-9.815-10.708    c-11.529,0.852-12.402,10.616-14.772,18.692c-3.186,10.86-3.076,22.249-4.069,33.438c-0.314,3.534,0.192,7.173,0.599,10.732    c0.515,4.508-1.368,6.207-5.907,5.716c-8.17-0.884-16.375-1.437-24.565-2.136c-1.03-0.088-1.975-0.353-2.443-1.434    c-0.413-0.953,0.096-1.6,0.402-1.899c0-2.999-0.058-5.673,0.01-8.343c0.302-11.892-0.579-23.761-0.092-35.685    c0.409-10.019,0.029-20.117,0.236-30.177c0.094-4.542,0.465-9.077,0.652-13.617c0.046-1.119,0.108-2.201-0.494-3.343    c-0.674-1.277,0.242-2.326,1.56-2.26c8.242,0.415,16.428-0.934,24.644-0.725c2.472,0.063,4.891,0.99,7.483,0.522    c0.999-0.18,1.519,0.602,1.387,2.013C156.985,118.486,157.372,120.806,157.544,123.755z M150.104,117.057    c-8.108,0.379-16.184,0.756-24.33,1.136c-1.316,29.914-1.124,59.704-1.205,89.776c9.381,0.632,18.387,1.239,27.465,1.85    c-1.556-8.191-1.457-16.278-1.738-24.319c-0.301-8.614,0.423-17.2,1.568-25.758c1.581-11.821,7.95-21.592,18.002-23.392    c7.179-1.286,15.18,2.998,15.496,10.003c0.7,15.528,3.034,30.966,2.51,46.561c-0.171,5.086-0.027,10.183-0.027,15.279    c9.203,0.347,18.146-0.464,27.45-1.112c0-8.093-0.087-16.366,0.021-24.636c0.153-11.696,0.806-23.398,0.582-35.084    c-0.217-11.318-4.139-21.043-14.431-27.294c-8.12-4.931-17.003-4.246-25.838-3.758c-4.107,0.227-8.205,1.101-11.254,4.236    c-3.358,3.452-6.642,6.991-8.615,11.501c-0.552,1.261-1.77,1.525-2.909,1.377c-1.062-0.138-1.109-1.23-1.17-2.113    C151.354,126.615,151.211,121.903,150.104,117.057z"/><path d="M104.597,205.84c1.285,0.325,2.457,0.685,2.22,2.169c-0.228,1.426-1.412,1.554-2.594,1.538    c-10.31-0.138-20.628-0.079-30.898-1.23c-0.305-0.034-0.602-0.147-0.89-0.22c-0.243-1.051,0.489-1.399,1.092-1.8    c-1.657-1.43-1.285-3.475-1.319-5.216c-0.371-19.341-0.801-38.684-0.814-58.027c-0.005-8.156,0.002-16.277-0.964-24.381    c-0.279-2.341,0.487-3.642,3.146-3.811c9.436-0.6,18.857-1.437,28.293-2.043c3.405-0.219,7.301,4.122,7.179,7.536    c-0.515,14.378-0.848,28.764-1.528,43.134c-0.619,13.082-0.206,26.228-2.204,39.232    C105.16,203.738,104.856,204.732,104.597,205.84z M102.326,115.775c-9.791,0.718-19.203,1.408-28.821,2.113    c2.346,14.952,2.094,29.64,1.533,44.251c-0.563,14.664,0.291,29.303,0.114,44.18c8.625-0.191,17.576,1.441,26.624-0.101    C102.668,176.136,103.632,146.106,102.326,115.775z"/><path d="M88.918,70.857c8.344-4.126,20.811,4.044,21.564,13.656c0.55,7.024-2.413,12.478-7.02,16.856    c-5.888,5.597-15.094,5.41-22.775,2.36c-12.095-4.803-13.884-20.938-5.876-28.196c3.206-2.906,6.862-4.95,11.107-5.852    C87.114,69.427,88.348,69.396,88.918,70.857z M87.48,72.079c-5.17-0.261-13.554,6.923-14.169,12.117    c-1.184,10.005,3.987,16.106,15.389,18.156c6.168,1.109,13.982-3.39,15.098-9.033c0.964-4.872,1.087-9.932-1.543-14.35    c-3.497-5.875-8.893-7.373-15.778-4.789C87.044,72.994,87.26,72.541,87.48,72.079z"/><path d="M199.552,100.242c-1.351-2.962-1.146-5.673-0.258-8.154c4.247-11.872,10.335-22.801,17.559-33.103    c0.693-0.989,1.684-2.793,3.184-1.544c1.552,1.292-0.382,2.247-1.02,3.233c-7.581,11.726-14.537,23.76-18.605,37.24    C200.211,98.582,199.93,99.226,199.552,100.242z"/><path d="M139.261,98.098c-0.209-1.799-0.627-3.602-0.592-5.396c0.254-13.102,0.593-26.202,0.925-39.303    c0.024-0.955,0.241-1.975,1.504-1.878c1.334,0.103,1.018,1.226,0.983,2.052c-0.554,12.811,0.767,25.67-0.963,38.446    c-0.279,2.059-0.827,4.082-1.25,6.122C139.665,98.127,139.463,98.112,139.261,98.098z"/><path d="M168.694,98.892c-2.155-7.095-1.14-13.605,0.352-19.969c1.985-8.469,4.177-16.907,7.318-25.05    c0.381-0.988,0.907-1.961,1.557-2.792c0.541-0.691,1.429-0.761,2.144-0.145c0.739,0.637,0.195,1.197-0.135,1.877    c-2.831,5.819-4.067,12.159-5.928,18.3C171.305,80.015,170.143,89.202,168.694,98.892z"/><path d="M215.955,113.819c2.864-8.305,9.163-13.488,15.244-18.838c0.555-0.488,1.27-0.45,1.823,0.178    c0.605,0.688,0.401,1.441-0.115,1.953C227.344,102.638,221.743,108.127,215.955,113.819z"/><path d="M196.864,216.295c2.919,6.578,5.66,12.754,8.405,18.941c-0.574,1.119-1.673,1.813-2.3,0.684    C199.664,229.96,196.419,223.928,196.864,216.295z"/><path d="M110.07,66.311c-0.579-1.223-1.138-2.049-1.372-2.959c-1.072-4.166-2.051-8.355-3.067-12.535    c-0.16-0.66-0.23-1.383,0.495-1.652c0.426-0.158,1.163-0.085,1.492,0.198c2.048,1.755,4.349,13.241,3.207,15.675    C110.694,65.319,110.509,65.576,110.07,66.311z"/><path d="M168.232,218.573c1.429,5.122,2.697,9.402,3.786,13.727c0.321,1.277,2.364,3.024,0.284,3.882    c-2.219,0.915-2.148-1.806-2.766-3.043C167.357,228.781,167.6,224.125,168.232,218.573z"/><path d="M61.842,111.035c-2.439,0.428-4.857,0.782-7.241,1.297c-1.388,0.3-2.713,0.886-4.082,1.288    c-0.918,0.27-1.842,0.166-2.209-0.842c-0.351-0.965,0.486-1.28,1.186-1.618c3.28-1.581,6.65-2.697,10.359-1.953    C60.729,109.382,61.546,109.727,61.842,111.035z"/><path d="M116.048,221.427c0.377,1.2,0.737,1.851,0.765,2.517c0.173,4.112-0.063,8.189-1.46,12.113    c-0.222,0.623-0.62,1.173-1.416,1.003c-0.738-0.158-1.212-0.756-0.962-1.413c1.548-4.056,1.077-8.457,2.234-12.57    C115.32,222.684,115.58,222.335,116.048,221.427z"/><path d="M89.275,219.641c0.851,4.346-3.453,16.028-6.025,17.333c-0.613,0.311-1.069,0.117-1.449-0.635    C85.078,231.398,86.794,225.642,89.275,219.641z"/><path d="M238.484,194.92c0.237,1.628-0.282,2.095-1.634,1.97c-3.634-0.334-7.205-0.821-10.352-2.886    c-0.654-0.429-1.356-0.787-1.369-1.994C229.606,192.985,234.085,193.961,238.484,194.92z"/><path d="M61.949,149.396c-4.143,1.848-8.276,0.742-12.231,1.223c-0.706-0.298-1.041-0.808-0.886-1.526    c0.156-0.725,0.695-1.027,1.417-1.033C54.096,148.032,58.033,147.192,61.949,149.396z"/><path d="M60.644,85.982c-2.663-0.385-4.426-1.51-6.148-2.726c-1.076-0.759-2.144-1.529-3.227-2.277    c-0.829-0.573-2.429-0.829-1.714-2.228c0.789-1.543,2.062-0.459,2.978,0.087C55.528,80.625,58.508,82.46,60.644,85.982z"/><path d="M70.247,63.942c-1.988-3.565-3.976-7.129-5.954-10.677c0.471-1.208,1.363-1.34,2.102-0.632    C69.545,55.653,70.327,59.626,70.247,63.942z"/><path d="M223.282,216.857c2.929,1.927,5.252,4.182,6.998,6.907c0.605,0.944-0.559,1.562-1.546,1.391    C226.612,224.789,222.934,219.445,223.282,216.857z"/><path d="M141.399,225.279c1.168,3.584,0.679,7.081,0.599,10.542c-0.005,0.224-0.583,0.626-0.872,0.607    c-0.42-0.028-0.965-0.258-1.203-0.586C138.74,234.214,139.678,226.9,141.399,225.279z"/><path d="M60.089,183.773c-3.783,2.108-7.398,1.572-10.966,1.314c-0.284-0.02-0.754-0.617-0.732-0.917    c0.028-0.385,0.437-1.035,0.731-1.063C52.662,182.769,56.191,182.775,60.089,183.773z"/><path d="M63.918,214.857c-3.009,3.446-7.037,4.464-10.506,6.411C51.998,219.118,58.541,215.25,63.918,214.857z"/><path d="M228.676,165.856c-0.378-0.782-0.122-1.077,0.405-1.313c2.679-1.2,5.365-0.803,8.037-0.024    c0.666,0.194,0.869,0.808,0.679,1.468c-0.209,0.727-0.768,1.016-1.481,0.922C233.76,166.573,231.207,166.208,228.676,165.856z"/><path d="M227.111,136.568c2.448-2.547,7.963-3.59,9.542-1.96c0.075,0.596,0.083,1.482-0.554,1.498    C233.177,136.182,230.297,137.442,227.111,136.568z"/></g></g><g id="border"><g><path d="M36.798,172.992C36.783,173.311,36.81,173.469,36.798,172.992L36.798,172.992z" fill="#1D1D1B"/><path d="M169.632,35.492c0.097-0.001,0.146-0.001,0.241-0.002c0.176-0.08,0.34-0.149,0.498-0.202L169.632,35.492z" fill="#1D1D1B"/><path d="M209.65,36.187c0.099,0.014,0.166,0.023,0.258,0.035C209.892,36.173,209.948,36.128,209.65,36.187z" fill="#1D1D1B"/><path d="M77.996,36.276c-0.369,0.013-0.572,0.041-0.719,0.074C77.487,36.322,77.704,36.297,77.996,36.276z" fill="#1D1D1B"/><path d="M57.935,240.95c0,0-0.093-0.052-0.162-0.09c0.12,0.091,0.239,0.182,0.365,0.278L57.935,240.95z" fill="#1D1D1B"/><path d="M57.137,240.625c-0.769-0.537,0.279,0.038,0.637,0.235c-0.814-0.644-1.721-1.132-2.59-1.708    C55.088,239.303,56.788,240.308,57.137,240.625z" fill="#1D1D1B"/><path d="M190.382,246.245l-0.397,0.05C190.149,246.282,190.271,246.264,190.382,246.245z" fill="#1D1D1B"/><path d="M81.949,42.302c-0.196,0.01-0.416,0.02-0.598,0.029C81.661,42.335,81.831,42.321,81.949,42.302z" fill="#1D1D1B"/><path d="M169.526,246.122l-0.228,0.196C169.5,246.236,169.546,246.175,169.526,246.122z" fill="#1D1D1B"/><path d="M170.371,35.289l0.288-0.076C170.561,35.23,170.469,35.257,170.371,35.289z" fill="#1D1D1B"/><path d="M241.755,56.611c-0.044,0.044-0.039,0.145-0.019,0.255c0.025,0.042,0.044,0.074,0.056,0.096    L241.755,56.611z" fill="#1D1D1B"/><path d="M228.255,236.638c0.025,0.012,0.065,0.013,0.123,0.004l0.506-0.553    C228.582,236.33,228.378,236.509,228.255,236.638z" fill="#1D1D1B"/><path d="M246.844,107.463c0.023,0.044,0.043,0.164,0.068,0.172c0.066-0.861,0.08-3.133,0.072-6.039l-0.241-0.178    L246.844,107.463z" fill="#1D1D1B"/><path d="M241.235,162.552l0.484-5.37c0.223,17.236-0.262,25.278,0.128,40.03l-0.105-0.817    c-0.056,1.074,0.188,1.914,0.279,5.451c0.023,0.884,0.037,1.937,0.033,3.204c-0.089,1.175-0.107,2.56-0.324,4.16    c-0.464,3.185-1.539,7.332-4.264,12.03l-0.043-0.022c-0.158,0.34-0.215,0.521-0.328,0.778c-0.134,0.246-0.34,0.56-0.784,1.167    c0,0,0.138-0.19,0.344-0.475c0.204-0.287,0.5-0.658,0.716-1.073c0.473-0.814,0.947-1.627,0.947-1.627    c-0.462,1.026-0.748,2.072-1.333,3.074c-0.553,1.016-1.072,2.18-2.022,3.373c-0.43,0.486-0.64,0.601-0.739,0.604    c0,0-0.273,0.374-0.683,0.936c-0.463,0.519-1.079,1.212-1.696,1.904c-0.585,0.725-1.31,1.311-1.81,1.795    c-0.51,0.475-0.85,0.791-0.85,0.791s-0.118,0.081-0.294,0.203c-0.169,0.13-0.424,0.267-0.677,0.404    c-0.501,0.276-1.003,0.552-1.003,0.552c-0.861,0.727-0.954,1.133-1.552,1.654c-0.298,0.262-0.71,0.573-1.385,0.999    c-0.338,0.211-0.739,0.458-1.229,0.73c-0.515,0.218-1.115,0.472-1.822,0.772c1.136-0.293,0.486,0.095-0.361,0.55    c-0.828,0.497-1.932,0.85-1.526,0.839c-0.314,0.054-1.009,0.217-1.566,0.339c-0.43,0.151-0.891,0.375-1.414,0.514    c-0.522,0.144-1.077,0.296-1.649,0.454c-0.574,0.15-1.157,0.346-1.756,0.474c-0.604,0.107-1.209,0.215-1.799,0.32    c-0.591,0.108-1.167,0.213-1.713,0.312c-0.552,0.05-1.072,0.097-1.545,0.14c-0.945,0.093-1.701,0.186-2.131,0.267    c0,0,0.907,0.015,2.329,0.038c1.435,0.103,3.366-0.132,5.449-0.314c1.029-0.185,2.09-0.375,3.132-0.563    c1.036-0.227,2.029-0.554,2.981-0.802c0.964-0.223,1.794-0.601,2.545-0.868c0.75-0.271,1.388-0.502,1.872-0.677    c-4.923,2.234-1.267,0.673-0.225,0.342l0.271-0.258c2.815-1.613,3.038-1.289,4.383-2.234c-0.014-0.019-0.07-0.012-0.123-0.008    l-0.145,0.157c-0.154,0.051-0.101-0.032,0.023-0.161c-0.068-0.027,0.025-0.157,0.748-0.675l-0.118,0.126    c0.518-0.446,1.317-0.938,1.962-1.552c0.667-0.587,1.303-1.147,1.688-1.487l0.182,0.161c0.755-0.968,3.708-3.802,6.163-7.26    c0.578-0.883,1.252-1.726,1.748-2.629c0.503-0.905,0.987-1.777,1.432-2.578c0.787-1.654,1.336-3.074,1.639-3.851    c1.219-3.153,1.689-7.343,1.859-11.521c0.11-6.567,0.361-3.282,0.577-6.575c0.151-4.111-0.281,0.832-0.298-0.817l0.336-4.924    c0.029,2.862,0.175,1.309,0.268,0.785c0.041-4.256,0.484-10.968,0.002-12.278c0.231-5.743,0.424-5.757,0.447-8.219    c-0.088,0.825-0.168,2.462-0.265,2.476c0.213-2.3-0.052-1.099-0.1-0.158c-0.209-3.509,0.878-18.209,0.349-18.947h0.096    c-0.394-0.815-0.776,0.494-0.994-1.956l0.176-1.635l-0.169-2.462c0.128-1.651,0.233-0.839,0.281-0.839    c-0.182-4.011,0.035-9.606,0.088-14.464l-1.074,5.145c0.248-4.098,0.751-11.492,0.406-12.31l0.361-2.462    c0.689-8.217-0.299-5.737-0.092-9.016l0.393-4.127l-0.007,4.107c0.199-4.107,0.328-5.749,0.584-9.024l-0.011-0.036    c-0.016,0.226-0.035,0.372-0.059,0.402l-0.01-0.574c-0.196-0.498-0.33-2.64-0.317-5.533c0.055-4.109-0.234-7.322,0.182-13.883    l-0.402-1.636l0.239-4.926h0.32c0.029,4.826,0.082,13.909,0.119,20.111l0.146,0.11c0-3.678-0.142-7.863-0.11-10.293    c0.064-1.185,0.397-4.217,0.612-2.017l-0.313-2.272c-0.034-6.156,0.042-9.146-0.17-12.592c0.003-0.843-0.176-1.673-0.278-2.569    c-0.145-0.889-0.191-1.856-0.443-2.894c-0.243-1.042-0.511-2.189-0.816-3.494c-0.444-1.261-0.858-2.714-1.504-4.305    c0,0,0.097,0.283,0.178,0.572c0.066,0.294,0.132,0.589,0.132,0.589c-1.137-2.471-2.466-4.813-2.684-5.563    c-0.546-0.871-1.019-1.799-1.629-2.631c-0.607-0.835-1.213-1.669-1.815-2.495c-0.618-0.814-1.323-1.545-1.968-2.308    c-0.331-0.373-0.647-0.757-0.984-1.114c-0.354-0.34-0.704-0.677-1.051-1.01c-2.698-2.761-5.608-4.745-7.839-6.302    c0,0-0.301-0.068-0.602-0.136c-0.31-0.046-0.62-0.092-0.62-0.092c-0.782-0.391-1.705-0.999-2.565-1.498    c-0.86-0.496-1.708-0.752-2.193-0.67c0,0-0.893-0.281-1.786-0.563c-0.44-0.158-0.906-0.23-1.248-0.308    c-0.343-0.073-0.572-0.121-0.572-0.121c-1.156-0.295-2.089-0.544-3.081-0.689c-0.996-0.131-2.023-0.289-3.355-0.598l0,0    c-0.006-0.001-0.015-0.003-0.015-0.003c-0.164-0.035-0.336-0.088-0.505-0.106c-0.001,0.011,0.013,0.022,0.027,0.033    c-2.693-0.226-2.686-0.136-2.772-0.064c-0.043,0.037-0.111,0.071-0.552,0.064c-0.422-0.014-1.194-0.04-2.668-0.09    c-1.847-0.268-2.042,0.478-4.847,0.393l-2.816-0.541c-5.081-0.31-5.951,0.232-13.313,0.234c-3.535-0.193-5.244-0.654-2.902-1.063    c-3.219,0.496-1.465,0.323-5.735,0.561c-0.657-0.204-0.202-0.247,0.742-0.43c-3.793-0.239-2.34,0.184-5.2,0.172    c-0.831,0.384-1.788,0.995-2.718,1.02l1.107,0.12c-3.028,0.205-6.335,0.301-9.857,0.108l0.133-0.193l-3.747,0.098l-0.236-0.247    l-5.35,0.077l0.733,0.067c-1.256,0.033-5.381,0.118-7.739-0.011l0.086-0.137c-6.655-0.428-12.141,0.133-19.934,0.178l1.023-0.28    c-2.655-0.278-0.728,0.431-3.891,0.292l-0.158-0.344c-2.785,0.452-3.601-0.096-5.519-0.267l0.897,0.451l-3.615-0.095    c-3.981-0.149-2.443-0.569-1.861-0.805l-2.71,0.355l-0.53-0.398c-1.98,0.463-1.98-0.074-5.451,0.174    c-0.286-0.15,0.592-0.237-0.588-0.301l-5.723,0.561l3.452-0.249l-0.42,0.581c-3.595,0.441-4.87-0.063-7.438,0.099l1.769-0.173    c-4.191,0.141-4.414-0.106-6.779-0.235c0.733,0.108,1.855,0.269,0.158,0.345c-1.245,0.032-0.675-0.204-1.852-0.269    c-0.141,0.194-0.963,0.342-2.09,0.419c-0.564,0.038-1.204,0.059-1.873,0.059c-0.663-0.006-1.44,0.037-2.157,0.019    c0.033-0.057,0.093-0.113,0.282-0.158c-0.741,0.1-1.116,0.218-2.413,0.193l0.728-0.469c0,0-0.621,0.123-1.232,0.282    c-0.605,0.195-1.21,0.389-1.21,0.389c-0.829,0.066-1.833,0.269-2.603,0.417c-0.763,0.186-1.29,0.352-1.219,0.176l0.9-0.318    c0,0-0.767,0.189-1.918,0.473c-0.575,0.144-1.246,0.312-1.965,0.492c-0.699,0.247-1.445,0.51-2.19,0.773    c-0.737,0.284-1.507,0.493-2.17,0.827c-0.671,0.316-1.298,0.611-1.835,0.863c-0.537,0.254-0.984,0.466-1.297,0.615    c-0.308,0.157-0.473,0.267-0.473,0.267l-0.319-0.209c-0.415,0.546-1.943,1.357-3.217,2.19c-1.239,0.883-2.301,1.662-1.95,1.769    c-0.261,0.15-0.581,0.344-0.917,0.593c-0.321,0.267-0.671,0.573-1.032,0.898c-0.713,0.661-1.517,1.352-2.156,2.039    c-1.255,1.394-2.218,2.419-1.998,1.678c-0.738,0.749-1.297,1.569-1.86,2.33c-0.539,0.778-1.123,1.475-1.544,2.252    c-0.859,1.541-1.752,2.953-2.388,4.56c-0.342,0.79-0.718,1.579-1.057,2.417c-0.299,0.855-0.608,1.74-0.935,2.673    c-0.37,0.919-0.603,1.932-0.894,3.001c-0.292,1.07-0.635,2.2-0.823,3.455c-0.138,0.434-0.28,0.97-0.423,1.588    c-0.15,0.618-0.298,1.318-0.345,2.09c-0.135,1.52-0.302,3.402-0.28,5.07c-0.011,3.466-0.022,7.266-0.031,10.282    c0.237,11.792,0.45,19.412,0.631,31.464c-0.79,7.248,0.272,18.08-0.174,25.88l0.314,2.136c-0.5,5.184,0.112,13.101-0.376,20.375    c0.137,1.783,0.181,2.718,0.192,3.132c0.015-0.33,0.075-0.832,0.274-0.99c-0.14,2.077,0.035,6.279-0.363,5.979l-0.041-0.528    c-0.398-0.305,0.186,6.304-0.159,8.622l0.427-1.271l-0.072,3.935l-0.082-1.053c0.237,4.273,0.33,7.96,0.349,11.338    c-0.006,1.689-0.011,3.3-0.016,4.87c-0.005,0.393-0.009,0.783-0.014,1.17c0.014,0.413,0.028,0.824,0.042,1.233    c0.028,0.819,0.056,1.631,0.084,2.442c-0.002,0.814,0.182,1.609,0.267,2.417c0.114,0.804,0.211,1.616,0.349,2.426    c0.197,0.8,0.395,1.606,0.596,2.424c0.2,0.819,0.404,1.649,0.734,2.457c0.306,0.815,0.618,1.645,0.937,2.495    c0.336,0.842,0.801,1.652,1.221,2.505c0.219,0.422,0.441,0.85,0.667,1.285c0.233,0.429,0.528,0.832,0.798,1.257    c0.566,0.833,1.103,1.72,1.76,2.561c-1.726-1.556,2.201,2.557,1.945,3.041c1.21,1.809,2.562,3.345,4.122,4.477    c1.465,1.244,3.107,2.08,4.56,3.071c0.014-0.021,0.065-0.019,0.249,0.069c0,0,0.077,0.057,0.212,0.158    c0.143,0.089,0.346,0.216,0.591,0.369c0.49,0.305,1.143,0.711,1.797,1.117c0.327,0.202,0.655,0.405,0.962,0.595    c0.323,0.161,0.624,0.312,0.882,0.441c0.518,0.256,0.863,0.427,0.863,0.427c-3.598-1.019,4.225,1.44,0.947,0.471    c3.618,1.721,7.795,3.121,12.315,3.624c4.643,0.464,8.954,0.264,13.479,0.29c9.014-0.035,18.326-0.102,27.081,0.009l-0.768-0.165    c4.441,0.032,9.964-0.169,13.333,0.095c3.372,0.264,7.37-0.42,8.677-0.446c3.693-0.285,7.052,0.281,5.467,0.252    c3.949-0.079,7.662-0.666,13.142-0.414c1.873,0.545,14.95-0.535,15.114,0.079l0.06-0.052c7.018,0.433,13.638-0.303,21.197,0.088    c0,0-0.144,0.045-0.4,0.086l15.382-1.864l-4.381-2.051l-13.333-1.666l-36.133,0.361l-28.839-0.651c0,0-17.546,0.055-35.091,0.11    c-2.193,0.007-4.386,0.014-6.545,0.021c-1.058-0.008-2.199,0.033-3.16-0.017c-0.962-0.045-1.912-0.089-2.846-0.133    c-3.715-0.404-7.127-1.239-9.899-2.37c-0.718-0.218-1.338-0.593-1.96-0.869c-0.616-0.293-1.2-0.571-1.749-0.832    c-1.042-0.628-1.95-1.176-2.698-1.628c-0.731-0.478-1.259-0.922-1.642-1.19c-0.376-0.279-0.577-0.427-0.577-0.427    s-0.247-0.148-0.618-0.369c-0.374-0.22-0.812-0.589-1.282-0.924c-0.466-0.344-0.932-0.689-1.281-0.947    c-0.176-0.13-0.322-0.239-0.424-0.315c-0.094-0.085-0.147-0.134-0.147-0.134c-2.067-2.433-4.042-5.184-5.738-8.251    c-1.598-3.116-2.876-6.522-3.661-10.098l-0.436-2.714c-0.094-0.451-0.121-0.909-0.139-1.369l-0.078-1.376l-0.081-1.375    c-0.016-0.478-0.008-0.994-0.013-1.488c-0.001-0.998-0.002-1.993-0.002-2.984c0.007-3.963,0.057-7.854,0.201-11.569l-0.398-0.308    c-0.024-4.187,0.223-3.903,0.293-4.938c-0.093-19.48-0.188-39.25-0.28-58.53c-0.015-9.64-0.029-19.158-0.043-28.457    c0.021-4.649,0.042-9.244,0.063-13.772c0.009-1.132,0.018-2.26,0.028-3.383l0.016-1.682l0.098-1.539    c0.049-2.053,0.434-4.054,0.816-6.021c0.265-0.734,0.579-1.857,0.957-3.153c0.243-0.631,0.502-1.304,0.769-1.997    c0.13-0.347,0.262-0.7,0.395-1.054c0.148-0.348,0.333-0.681,0.496-1.023c0.335-0.679,0.668-1.353,0.987-2    c0.35-0.63,0.744-1.199,1.077-1.736c0.345-0.53,0.642-1.023,0.935-1.418c0.316-0.38,0.584-0.691,0.793-0.911    c2.85-4.307,6.878-8.081,11.583-10.693c4.727-2.578,10.056-3.994,15.283-4.2l-0.393,0.064c0,0,0.307-0.02,0.768-0.051    c0.476-0.022,1.042-0.094,1.726-0.097c1.342-0.019,2.685-0.038,2.685-0.038c0.228,0.033,0.255,0.08,0.083,0.111    c6.057-0.353,15.6-0.004,23.017,0.14l-0.433,0.043c21.636,0.036,42.498-0.132,63.315-0.239    c10.409-0.027,20.806-0.055,31.283-0.083l3.933,0.006c1.295,0.013,2.681-0.026,3.841,0.072c1.205,0.093,2.426,0.057,3.615,0.309    c1.191,0.213,2.408,0.31,3.568,0.682c4.711,1.153,9.194,3.313,13.07,6.316c3.544,2.864,6.729,6.446,9.168,10.635    c2.442,4.18,4.12,8.968,4.711,14.012c0.115,1.262,0.153,2.539,0.244,3.817c0.009,1.404,0.018,2.814,0.027,4.227    c0.008,2.829,0.016,5.674,0.023,8.527c-0.002,5.707-0.048,11.451-0.183,17.174C240.751,112.143,241.049,158.459,241.235,162.552z" fill="#1D1D1B"/><path d="M234.224,227.037l0.097-0.133C234.184,226.808,234.088,227.043,234.224,227.037z" fill="#1D1D1B"/><path d="M246.356,135.056c-0.001,0.104-0.003,0.204-0.004,0.302l0.237-1.137L246.356,135.056z" fill="#1D1D1B"/><path d="M246.495,196.334c0.053-2.754,0.012-2.881-0.055-2.494C246.429,194.836,246.442,195.707,246.495,196.334z" fill="#1D1D1B"/><path d="M217.745,239.302c-1.266,0.452-0.757,0.371,0.025,0.202c1.289-0.489,2.186-0.829,2.186-0.829    C219.231,238.881,218.49,239.091,217.745,239.302z" fill="#1D1D1B"/><path d="M223.847,239.141l-0.339,0.314C224.254,239.059,224.198,239.031,223.847,239.141z" fill="#1D1D1B"/></g></g></svg>